PathFileType	4	(X/Y/Z)	C:\Users\Basilio\Documents\Thesis Gigler\squatting_fais\c3dfiles\058\SLS_back_pre1\markers_experimental.trc
DataRate	CameraRate	NumFrames	NumMarkers	Units	OrigDataRate	OrigDataStartFrame	OrigNumFrames
200.000000	200.000000	4	60	mm	200.000000	303	1215
Frame#	Time	FHD			LBHD			RBHD			C7			T10			CLAV			LSHO			LUUPA			LMUPA			LDUPA			LLEP			LMEP			LUL			LRFIN			RSHO			RUPA1			RMUPA			RDUPA			RLEP			RMEP			RRAD			RUL			RUFIN			LASI			RASI			USACR			LSACR			RSACR			LTHI1			LTHI2			LTHI3			LTHI4			LLFC			LMFC			LTIB1			LTIB2			LTIB3			LTIB4			LLMAL			LMMAL			LHEE			LMT1			LMT5			RTHI			RTHI2			RTHI3			RTHI4			RLFC			RMFC			RTIB1			RTIB2			RTIB3			RTIB4			RLMAL			RMMAL			RHEE			RMT1			RMT2			RMT5			LMT2			
		X1	Y1	Z1	X2	Y2	Z2	X3	Y3	Z3	X4	Y4	Z4	X5	Y5	Z5	X6	Y6	Z6	X7	Y7	Z7	X8	Y8	Z8	X9	Y9	Z9	X10	Y10	Z10	X11	Y11	Z11	X12	Y12	Z12	X13	Y13	Z13	X14	Y14	Z14	X15	Y15	Z15	X16	Y16	Z16	X17	Y17	Z17	X18	Y18	Z18	X19	Y19	Z19	X20	Y20	Z20	X21	Y21	Z21	X22	Y22	Z22	X23	Y23	Z23	X24	Y24	Z24	X25	Y25	Z25	X26	Y26	Z26	X27	Y27	Z27	X28	Y28	Z28	X29	Y29	Z29	X30	Y30	Z30	X31	Y31	Z31	X32	Y32	Z32	X33	Y33	Z33	X34	Y34	Z34	X35	Y35	Z35	X36	Y36	Z36	X37	Y37	Z37	X38	Y38	Z38	X39	Y39	Z39	X40	Y40	Z40	X41	Y41	Z41	X42	Y42	Z42	X43	Y43	Z43	X44	Y44	Z44	X45	Y45	Z45	X46	Y46	Z46	X47	Y47	Z47	X48	Y48	Z48	X49	Y49	Z49	X50	Y50	Z50	X51	Y51	Z51	X52	Y52	Z52	X53	Y53	Z53	X54	Y54	Z54	X55	Y55	Z55	X56	Y56	Z56	X57	Y57	Z57	X58	Y58	Z58	X59	Y59	Z59	X60	Y60	Z60	

304	1.515	-249.773178100586	1800.868286132813	-621.8895874023439	-406.5855102539064	1760.671752929688	-702.0566406250001	-233.3349304199219	1809.161743164063	-765.2647705078126	-420.886444091797	1592.751342773438	-719.4014282226564	-422.7730712890626	1287.89453125	-709.8261718750001	-261.8205566406251	1552.9580078125	-700.0568847656251	-272.6842956542969	1605.236206054688	-853.5957031250002	-109.8902969360352	1531.456298828125	-947.3162231445315	-87.37109375000001	1569.926391601563	-922.877136230469	-41.47310256958009	1532.062866210938	-933.7705688476565	31.11128425598145	1537.201049804688	-911.6169433593752	32.22684860229493	1484.580810546875	-874.3288574218752	297.1304016113282	1568.901000976563	-872.195007324219	390.6250915527345	1568.401489257813	-789.3850708007815	-293.9637451171876	1604.09912109375	-548.2322387695314	-132.0392303466797	1515.226318359375	-450.113739013672	-109.962890625	1554.133056640625	-473.7911682128907	-63.02976226806642	1523.899536132813	-454.6046447753907	3.944813013076783	1515.781860351563	-466.9871520996095	8.127793312072756	1457.040283203125	-517.3408813476564	260.6759033203126	1545.552856445313	-560.6600952148439	272.0262145996094	1556.264038085938	-487.7525634765626	360.6250000000001	1575.084838867188	-558.2011108398439	-250.0736846923829	1090.938354492188	-850.6109619140627	-242.4016113281251	1073.239501953125	-608.2490844726564	-437.3357849121095	1170.29541015625	-706.5018920898439	-444.4546508789064	1140.834228515625	-736.7410888671876	-439.9636535644532	1136.475952148438	-678.8615112304689	-290.2403259277344	818.289733886719	-948.9664306640627	-255.4878387451172	740.5075683593751	-953.950866699219	-212.3045349121094	738.2567138671876	-932.0872192382815	-283.1856994628907	686.3776855468751	-958.0117187500002	-300.3155517578126	606.0851440429689	-955.1875000000002	-278.4299621582032	569.4976806640626	-828.6931152343752	-401.0215148925782	514.8319702148439	-929.4071044921877	-446.304412841797	576.0275878906251	-963.553649902344	-445.5835266113282	532.0567626953126	-957.5139160156252	-524.1969604492189	510.8994445800782	-931.935974121094	-719.2294311523439	555.8098754882814	-911.6978759765627	-703.9254760742189	489.6274414062501	-843.1683349609377	-710.6707763671876	589.4838867187501	-833.0571899414065	-830.4649047851565	408.5518188476564	-886.7248535156252	-840.1312255859377	489.0844116210939	-956.7423095703127	-348.5397644042969	860.935729980469	-556.5444335937501	-312.3305358886719	805.6624755859377	-560.7912597656251	-279.0468139648438	805.714538574219	-562.6995849609376	-340.5169372558594	729.5371704101564	-584.0549316406251	-333.2071533203126	549.6992797851564	-617.8321533203126	-305.2049255371094	550.5756835937501	-752.5958251953126	-293.1292724609376	353.2232971191407	-725.4173583984376	-329.4379882812501	270.2696533203126	-665.7313232421876	-296.2545471191407	265.8816223144532	-700.2426147460939	-309.4500122070313	225.8015441894532	-739.4052734375001	-372.7427978515626	119.1770477294922	-703.6904296875001	-343.4972839355469	143.6670837402344	-791.2410278320315	-440.1221618652345	102.0891265869141	-765.2651977539064	-229.2424316406251	59.67088699340822	-777.7507324218752	-223.7006530761719	60.04237365722658	-725.5285034179689	-274.5513916015626	28.95295715332032	-674.1633911132814	-842.917419433594	419.312469482422	-926.4414672851565	
305	1.52	-249.6230163574219	1800.863159179688	-621.7788085937501	-406.5616760253907	1760.6044921875	-702.0412597656251	-233.1255950927735	1809.110595703125	-765.2437133789064	-420.9266357421876	1592.606689453125	-719.3640136718751	-422.7375488281251	1287.78369140625	-709.8192138671876	-261.7180480957032	1552.863159179688	-700.0883789062501	-272.5793151855469	1605.18115234375	-853.5906982421877	-109.8479309082032	1531.466186523438	-947.354187011719	-87.36602783203126	1569.890625	-922.8972778320315	-41.41096115112305	1532.062866210938	-933.8227539062502	31.13269233703614	1537.181640625	-911.632263183594	32.22309875488282	1484.50244140625	-874.369812011719	297.2070617675782	1569.043212890625	-872.2766723632815	390.7357177734376	1568.589721679688	-789.3723144531252	-293.9627380371094	1604.017211914063	-548.2861938476564	-131.7740020751953	1515.214111328125	-450.2301025390626	-110.0088195800782	1554.207641601563	-474.0126342773439	-62.96655654907228	1523.935668945313	-454.6236267089845	3.917481899261475	1515.680541992188	-466.972381591797	8.250335693359377	1456.936889648438	-517.0786132812501	260.3807373046876	1545.407592773438	-560.4008789062501	272.0547180175782	1556.224853515625	-487.8012695312501	360.5754699707032	1575.042602539063	-558.1976318359376	-250.0965270996094	1090.783447265625	-850.6384277343752	-242.4777374267579	1073.007446289063	-608.2349853515626	-437.3774414062501	1170.204711914063	-706.4766845703126	-444.4802551269532	1140.7509765625	-736.6763916015626	-439.9419555664064	1136.431518554688	-678.8856811523439	-290.3674316406251	818.2148437500002	-949.0311279296877	-255.6915588378907	740.3770141601564	-954.0145263671877	-212.4503479003907	738.1646118164064	-932.163513183594	-283.3882141113282	686.2444458007814	-958.0581665039065	-300.6150207519532	605.8862304687501	-955.2236328125002	-278.2616577148438	569.1284179687501	-828.9285278320315	-408.212371826172	513.2288818359376	-923.7420654296877	-446.6071777343751	575.8735351562501	-963.5815429687502	-445.630096435547	531.8149414062501	-957.7009277343752	-524.4101562500001	510.6582641601564	-932.0005493164065	-719.3414306640626	555.5147094726564	-911.8306884765627	-704.0720214843751	489.5080871582032	-843.7421875000002	-710.7908935546876	589.1052246093751	-833.1483154296877	-830.4681396484377	408.4118652343751	-886.742126464844	-839.9731445312502	488.2303161621095	-956.9506835937502	-348.3663940429688	860.7940063476565	-556.4868164062501	-312.0055541992188	805.2679443359377	-560.9417724609376	-278.9711608886719	805.4705810546877	-562.8138427734376	-340.0150146484376	729.4772338867189	-584.1079101562501	-332.3810119628907	549.8064575195314	-618.0712890625001	-305.5834960937501	550.2531127929689	-753.3862304687501	-292.9755859375001	353.0592956542969	-725.6386718750001	-329.2432250976563	270.2475585937501	-665.8201293945314	-296.2564392089844	265.7601623535157	-700.5148925781251	-309.4030761718751	226.1562194824219	-739.6193237304689	-372.7367858886719	119.1931915283203	-703.8164062500001	-343.5386657714844	143.5939483642578	-791.4073486328127	-440.0857238769532	102.1017761230469	-765.3348999023439	-229.2024993896485	59.53626632690431	-777.8771972656252	-223.7270812988282	60.0570640563965	-725.6290283203126	-274.5566406250001	28.97315979003907	-674.1965942382814	-843.039245605469	418.6548156738282	-926.3626098632815	
306	1.525	-249.5625457763672	1800.79833984375	-621.9628906250001	-406.4978637695314	1760.546997070313	-702.0371093750001	-233.1487579345704	1808.9970703125	-765.2746582031251	-420.9004211425782	1592.502075195313	-719.3864746093751	-422.7292785644532	1287.616821289063	-709.8047485351564	-261.6581420898438	1552.74853515625	-700.1001586914064	-272.5375671386719	1605.06689453125	-853.6370849609377	-109.8708267211914	1531.415283203125	-947.3859863281252	-87.3237762451172	1569.820190429688	-922.923034667969	-41.38716506958009	1532.018920898438	-933.836364746094	31.22045898437501	1537.184936523438	-911.6713867187502	32.30425262451173	1484.3798828125	-874.3882446289065	297.3129577636719	1569.176147460938	-872.305603027344	390.9195861816407	1568.827514648438	-789.3043212890627	-293.9194641113282	1603.966064453125	-548.2836914062501	-131.7781829833985	1515.134765625	-450.2350463867189	-109.8670349121094	1554.009521484375	-473.8728027343751	-62.9220314025879	1523.91357421875	-454.6496887207032	3.981329441070558	1515.634033203125	-467.0030517578126	8.302060127258303	1456.90673828125	-517.2968750000001	260.2425842285157	1545.27880859375	-560.1759643554689	272.1082763671876	1556.17626953125	-487.724578857422	360.7704467773438	1574.914184570313	-558.2390136718751	-250.1756896972657	1090.66650390625	-850.673278808594	-242.4605865478516	1072.882690429688	-608.2869262695314	-437.2871704101564	1170.128173828125	-706.4777832031251	-444.5924682617189	1140.68310546875	-736.6557617187501	-439.9744567871095	1136.394775390625	-678.8726196289064	-290.5668945312501	818.1314697265627	-949.101257324219	-255.9921875000001	740.2402954101564	-954.073913574219	-212.2255096435547	738.5066528320314	-931.8741455078127	-283.6309814453126	686.1235961914064	-958.1168212890627	-300.8836669921876	605.7805786132814	-955.3068847656252	-278.8851318359376	569.1531372070314	-828.9563598632815	-405.5138244628907	512.7074584960939	-926.1325683593752	-446.6454467773439	575.6358642578126	-963.756286621094	-445.8952636718751	531.5471801757814	-957.7883300781252	-524.6651611328126	510.5090332031251	-932.0603027343752	-719.5254516601564	555.2245483398439	-911.9405517578127	-704.3252563476564	489.3526306152345	-843.9260253906252	-711.1629028320314	588.8246459960939	-833.1728515625002	-830.4571533203127	407.820770263672	-886.7779541015627	-840.0357666015627	487.8825073242189	-957.0167236328127	-348.1096801757813	860.6127929687502	-556.4543457031251	-311.8676452636719	805.131774902344	-560.9218139648439	-278.6846008300782	805.3880004882815	-562.9870605468751	-339.7314453125001	729.4065551757814	-584.1436767578126	-331.8178100585938	549.6968994140626	-618.2202758789064	-305.3261108398438	550.1658935546876	-753.5191650390626	-292.6242980957032	353.0616760253907	-725.8679199218751	-329.0950622558594	270.2025451660157	-665.9451293945314	-295.9711303710938	265.6994934082032	-700.7330932617189	-309.3141174316407	226.1191558837891	-739.8448486328126	-372.6040344238282	119.2089309692383	-703.9552612304689	-343.6694946289063	143.5144958496094	-791.6111450195315	-440.1353759765626	102.067985534668	-765.3465576171876	-229.172592163086	59.56214904785158	-777.8679199218752	-223.703353881836	60.06190109252931	-725.6618041992189	-274.5115966796876	29.07342720031739	-674.1887817382814	-843.2175292968752	418.0477600097657	-926.3582153320315	
307	1.53	-249.5308837890626	1800.723999023438	-621.8093872070314	-406.463592529297	1760.427612304688	-702.0162353515626	-233.1140899658204	1808.918579101563	-765.3443603515626	-420.7971496582032	1592.414916992188	-719.4332275390626	-422.7423706054689	1287.540283203125	-709.7854614257814	-261.6104125976563	1552.634887695313	-700.0742797851564	-272.4830017089844	1604.968383789063	-853.6273193359377	-109.8305206298828	1531.3125	-947.407897949219	-87.32260131835939	1569.754638671875	-922.9116210937502	-41.32135772705079	1531.994018554688	-933.8857421875002	31.22767066955567	1537.131103515625	-911.7232666015627	32.48266983032227	1484.291015625	-874.4986572265627	297.2789916992188	1569.257934570313	-872.2827148437502	391.0187377929689	1569.05615234375	-789.3046875000002	-293.7458801269532	1603.864013671875	-548.3798828125001	-131.6869812011719	1515.159423828125	-450.2778930664064	-109.4545822143555	1553.895874023438	-473.9969787597657	-62.91746139526369	1523.641723632813	-454.7537231445314	4.010756492614747	1515.568359375	-467.0161132812501	8.451491355895998	1456.848388671875	-517.5527343750001	270.9532470703126	1547.693237304688	-570.9915771484376	272.1419372558594	1556.17919921875	-487.7785644531251	361.0659790039063	1574.864135742188	-558.2216796875001	-250.2665557861329	1090.506958007813	-850.6733398437502	-242.5372009277344	1072.69921875	-608.3774414062501	-437.2589721679689	1169.977783203125	-706.4450683593751	-444.7005615234376	1140.625	-736.6125488281251	-439.9830322265626	1136.350463867188	-678.8635864257814	-290.6904296875001	818.0222778320315	-949.166687011719	-256.2191772460938	740.1254882812501	-954.1491699218752	-212.8283081054688	737.9103393554689	-932.3079833984377	-283.7101745605469	686.0771484375001	-958.1953125000002	-300.9941406250001	605.6181640625001	-955.4401855468752	-278.9816589355469	568.9901733398439	-829.0767822265627	-405.1111145019532	512.8036499023439	-926.676208496094	-446.8443298339845	575.4916381835939	-963.903747558594	-446.1104125976564	531.3518676757814	-957.9062500000002	-524.7583618164064	510.3367919921876	-932.0972900390627	-719.7571411132814	554.8864135742189	-911.9733886718752	-704.5717773437501	488.8487548828126	-843.3963012695315	-711.4935913085939	588.3570556640626	-833.2485961914065	-830.5737304687502	407.3816833496095	-886.7867431640627	-840.2935791015627	487.6468200683595	-956.9802246093752	-347.8399963378907	860.4341430664065	-556.3912963867189	-311.5799865722657	804.8193969726565	-561.0360107421876	-278.3623046875001	805.1779785156252	-563.0983886718751	-339.5172119140626	729.1870727539064	-584.1384887695314	-331.3177795410157	549.5942993164064	-618.3339843750001	-305.1517028808594	550.0314331054689	-753.6175537109376	-292.3143920898438	353.0616149902344	-726.1011962890626	-328.8031616210938	270.0568847656251	-666.0352783203126	-295.5990600585938	265.7513122558594	-700.9869384765626	-309.0969238281251	225.9720153808594	-739.9768676757814	-372.4365234375001	119.2233657836914	-704.0676879882814	-343.7487792968751	143.4446716308594	-791.7549438476565	-440.1159973144532	102.0615463256836	-765.3802490234376	-229.2192382812501	59.5705032348633	-777.991638183594	-223.6965637207032	60.09560394287111	-725.6876831054689	-274.5190429687501	28.99051094055176	-674.2269897460939	-843.6218261718752	417.5441284179689	-926.311950683594	
